<svg xmlns="http://www.w3.org/2000/svg" xmlns:xlink="http://www.w3.org/1999/xlink" width="500" zoomAndPan="magnify" viewBox="0 0 375 374.999991" height="500" preserveAspectRatio="xMidYMid meet" version="1.0"><defs><g/><clipPath id="1a6a06d3ad"><path d="M 61.804688 17.230469 L 313.054688 17.230469 L 313.054688 268.480469 L 61.804688 268.480469 Z M 61.804688 17.230469 " clip-rule="nonzero"/></clipPath></defs><g fill="#ffffff" fill-opacity="1"><g transform="translate(77.971516, 346.582493)"><g><path d="M 11.453125 -27.796875 L 11.453125 -20.8125 L 22.71875 -20.8125 L 22.71875 -14.3125 L 11.453125 -14.3125 L 11.453125 -6.734375 L 24.203125 -6.734375 L 24.203125 0 L 3.046875 0 L 3.046875 -34.53125 L 24.203125 -34.53125 L 24.203125 -27.796875 Z M 11.453125 -27.796875 "/></g></g></g><g fill="#ffffff" fill-opacity="1"><g transform="translate(104.575661, 346.582493)"><g><path d="M 19.765625 -27.734375 C 22.984375 -27.734375 25.550781 -26.691406 27.46875 -24.609375 C 29.382812 -22.535156 30.34375 -19.675781 30.34375 -16.03125 L 30.34375 0 L 21.984375 0 L 21.984375 -14.90625 C 21.984375 -16.738281 21.507812 -18.160156 20.5625 -19.171875 C 19.613281 -20.191406 18.332031 -20.703125 16.71875 -20.703125 C 15.113281 -20.703125 13.832031 -20.191406 12.875 -19.171875 C 11.925781 -18.160156 11.453125 -16.738281 11.453125 -14.90625 L 11.453125 0 L 3.046875 0 L 3.046875 -27.453125 L 11.453125 -27.453125 L 11.453125 -23.8125 C 12.304688 -25.019531 13.453125 -25.972656 14.890625 -26.671875 C 16.335938 -27.378906 17.960938 -27.734375 19.765625 -27.734375 Z M 19.765625 -27.734375 "/></g></g></g><g fill="#ffffff" fill-opacity="1"><g transform="translate(137.720203, 346.582493)"><g><path d="M 28.921875 -14.171875 C 28.921875 -13.378906 28.875 -12.554688 28.78125 -11.703125 L 9.734375 -11.703125 C 9.867188 -10.003906 10.421875 -8.703125 11.390625 -7.796875 C 12.359375 -6.890625 13.546875 -6.4375 14.953125 -6.4375 C 17.046875 -6.4375 18.503906 -7.320312 19.328125 -9.09375 L 28.28125 -9.09375 C 27.820312 -7.289062 26.992188 -5.664062 25.796875 -4.21875 C 24.597656 -2.78125 23.097656 -1.648438 21.296875 -0.828125 C 19.492188 -0.015625 17.476562 0.390625 15.25 0.390625 C 12.5625 0.390625 10.164062 -0.179688 8.0625 -1.328125 C 5.96875 -2.472656 4.328125 -4.109375 3.140625 -6.234375 C 1.960938 -8.367188 1.375 -10.863281 1.375 -13.71875 C 1.375 -16.570312 1.957031 -19.0625 3.125 -21.1875 C 4.289062 -23.320312 5.921875 -24.960938 8.015625 -26.109375 C 10.117188 -27.265625 12.53125 -27.84375 15.25 -27.84375 C 17.90625 -27.84375 20.265625 -27.285156 22.328125 -26.171875 C 24.398438 -25.054688 26.015625 -23.460938 27.171875 -21.390625 C 28.335938 -19.328125 28.921875 -16.921875 28.921875 -14.171875 Z M 20.3125 -16.375 C 20.3125 -17.820312 19.816406 -18.96875 18.828125 -19.8125 C 17.847656 -20.664062 16.625 -21.09375 15.15625 -21.09375 C 13.738281 -21.09375 12.546875 -20.679688 11.578125 -19.859375 C 10.609375 -19.046875 10.007812 -17.882812 9.78125 -16.375 Z M 20.3125 -16.375 "/></g></g></g><g fill="#ffffff" fill-opacity="1"><g transform="translate(168.012559, 346.582493)"><g><path d="M 11.453125 -22.875 C 12.441406 -24.382812 13.671875 -25.570312 15.140625 -26.4375 C 16.617188 -27.300781 18.257812 -27.734375 20.0625 -27.734375 L 20.0625 -18.84375 L 17.75 -18.84375 C 15.65625 -18.84375 14.082031 -18.390625 13.03125 -17.484375 C 11.976562 -16.585938 11.453125 -15.003906 11.453125 -12.734375 L 11.453125 0 L 3.046875 0 L 3.046875 -27.453125 L 11.453125 -27.453125 Z M 11.453125 -22.875 "/></g></g></g><g fill="#ffffff" fill-opacity="1"><g transform="translate(189.059847, 346.582493)"><g><path d="M 13.484375 -27.84375 C 15.410156 -27.84375 17.101562 -27.445312 18.5625 -26.65625 C 20.019531 -25.875 21.144531 -24.84375 21.9375 -23.5625 L 21.9375 -27.453125 L 30.34375 -27.453125 L 30.34375 -0.046875 C 30.34375 2.472656 29.84375 4.757812 28.84375 6.8125 C 27.84375 8.863281 26.316406 10.492188 24.265625 11.703125 C 22.222656 12.921875 19.675781 13.53125 16.625 13.53125 C 12.5625 13.53125 9.265625 12.566406 6.734375 10.640625 C 4.210938 8.722656 2.769531 6.128906 2.40625 2.859375 L 10.71875 2.859375 C 10.976562 3.898438 11.597656 4.722656 12.578125 5.328125 C 13.566406 5.941406 14.785156 6.25 16.234375 6.25 C 17.972656 6.25 19.359375 5.75 20.390625 4.75 C 21.421875 3.75 21.9375 2.148438 21.9375 -0.046875 L 21.9375 -3.9375 C 21.113281 -2.65625 19.976562 -1.613281 18.53125 -0.8125 C 17.09375 -0.0078125 15.410156 0.390625 13.484375 0.390625 C 11.210938 0.390625 9.160156 -0.1875 7.328125 -1.34375 C 5.492188 -2.507812 4.039062 -4.164062 2.96875 -6.3125 C 1.90625 -8.46875 1.375 -10.953125 1.375 -13.765625 C 1.375 -16.585938 1.90625 -19.0625 2.96875 -21.1875 C 4.039062 -23.320312 5.492188 -24.960938 7.328125 -26.109375 C 9.160156 -27.265625 11.210938 -27.84375 13.484375 -27.84375 Z M 21.9375 -13.71875 C 21.9375 -15.820312 21.351562 -17.476562 20.1875 -18.6875 C 19.019531 -19.90625 17.601562 -20.515625 15.9375 -20.515625 C 14.257812 -20.515625 12.835938 -19.914062 11.671875 -18.71875 C 10.515625 -17.519531 9.9375 -15.867188 9.9375 -13.765625 C 9.9375 -11.671875 10.515625 -10.007812 11.671875 -8.78125 C 12.835938 -7.550781 14.257812 -6.9375 15.9375 -6.9375 C 17.601562 -6.9375 19.019531 -7.539062 20.1875 -8.75 C 21.351562 -9.96875 21.9375 -11.625 21.9375 -13.71875 Z M 21.9375 -13.71875 "/></g></g></g><g fill="#ffffff" fill-opacity="1"><g transform="translate(222.450276, 346.582493)"><g><path d="M 7.28125 -30.296875 C 5.800781 -30.296875 4.59375 -30.726562 3.65625 -31.59375 C 2.726562 -32.46875 2.265625 -33.546875 2.265625 -34.828125 C 2.265625 -36.140625 2.726562 -37.226562 3.65625 -38.09375 C 4.59375 -38.96875 5.800781 -39.40625 7.28125 -39.40625 C 8.71875 -39.40625 9.90625 -38.96875 10.84375 -38.09375 C 11.78125 -37.226562 12.25 -36.140625 12.25 -34.828125 C 12.25 -33.546875 11.78125 -32.46875 10.84375 -31.59375 C 9.90625 -30.726562 8.71875 -30.296875 7.28125 -30.296875 Z M 11.453125 -27.453125 L 11.453125 0 L 3.046875 0 L 3.046875 -27.453125 Z M 11.453125 -27.453125 "/></g></g></g><g fill="#ffffff" fill-opacity="1"><g transform="translate(236.957165, 346.582493)"><g><path d="M 1.375 -13.71875 C 1.375 -16.570312 1.957031 -19.0625 3.125 -21.1875 C 4.289062 -23.320312 5.910156 -24.960938 7.984375 -26.109375 C 10.066406 -27.265625 12.457031 -27.84375 15.15625 -27.84375 C 18.59375 -27.84375 21.46875 -26.9375 23.78125 -25.125 C 26.09375 -23.320312 27.609375 -20.785156 28.328125 -17.515625 L 19.375 -17.515625 C 18.625 -19.609375 17.164062 -20.65625 15 -20.65625 C 13.457031 -20.65625 12.226562 -20.054688 11.3125 -18.859375 C 10.394531 -17.660156 9.9375 -15.945312 9.9375 -13.71875 C 9.9375 -11.488281 10.394531 -9.773438 11.3125 -8.578125 C 12.226562 -7.378906 13.457031 -6.78125 15 -6.78125 C 17.164062 -6.78125 18.625 -7.832031 19.375 -9.9375 L 28.328125 -9.9375 C 27.609375 -6.71875 26.082031 -4.191406 23.75 -2.359375 C 21.425781 -0.523438 18.5625 0.390625 15.15625 0.390625 C 12.457031 0.390625 10.066406 -0.179688 7.984375 -1.328125 C 5.910156 -2.472656 4.289062 -4.109375 3.125 -6.234375 C 1.957031 -8.367188 1.375 -10.863281 1.375 -13.71875 Z M 1.375 -13.71875 "/></g></g></g><g fill="#ffffff" fill-opacity="1"><g transform="translate(266.708566, 346.582493)"><g><path d="M 28.921875 -14.171875 C 28.921875 -13.378906 28.875 -12.554688 28.78125 -11.703125 L 9.734375 -11.703125 C 9.867188 -10.003906 10.421875 -8.703125 11.390625 -7.796875 C 12.359375 -6.890625 13.546875 -6.4375 14.953125 -6.4375 C 17.046875 -6.4375 18.503906 -7.320312 19.328125 -9.09375 L 28.28125 -9.09375 C 27.820312 -7.289062 26.992188 -5.664062 25.796875 -4.21875 C 24.597656 -2.78125 23.097656 -1.648438 21.296875 -0.828125 C 19.492188 -0.015625 17.476562 0.390625 15.25 0.390625 C 12.5625 0.390625 10.164062 -0.179688 8.0625 -1.328125 C 5.96875 -2.472656 4.328125 -4.109375 3.140625 -6.234375 C 1.960938 -8.367188 1.375 -10.863281 1.375 -13.71875 C 1.375 -16.570312 1.957031 -19.0625 3.125 -21.1875 C 4.289062 -23.320312 5.921875 -24.960938 8.015625 -26.109375 C 10.117188 -27.265625 12.53125 -27.84375 15.25 -27.84375 C 17.90625 -27.84375 20.265625 -27.285156 22.328125 -26.171875 C 24.398438 -25.054688 26.015625 -23.460938 27.171875 -21.390625 C 28.335938 -19.328125 28.921875 -16.921875 28.921875 -14.171875 Z M 20.3125 -16.375 C 20.3125 -17.820312 19.816406 -18.96875 18.828125 -19.8125 C 17.847656 -20.664062 16.625 -21.09375 15.15625 -21.09375 C 13.738281 -21.09375 12.546875 -20.679688 11.578125 -19.859375 C 10.609375 -19.046875 10.007812 -17.882812 9.78125 -16.375 Z M 20.3125 -16.375 "/></g></g></g><g clip-path="url(#1a6a06d3ad)"><path fill="#ffffff" d="M 73.464844 142.917969 C 73.464844 80.042969 124.617188 28.890625 187.496094 28.890625 C 196.308594 28.890625 204.894531 29.894531 213.140625 31.800781 L 220.902344 21.695312 C 210.152344 18.75 198.941406 17.230469 187.496094 17.230469 C 153.921875 17.230469 122.355469 30.304688 98.617188 54.042969 C 74.878906 77.78125 61.804688 109.347656 61.804688 142.917969 C 61.804688 176.492188 74.878906 208.054688 98.617188 231.792969 C 108.4375 241.617188 119.601562 249.609375 131.6875 255.609375 L 135.917969 244.605469 C 98.886719 225.746094 73.464844 187.242188 73.464844 142.917969 Z M 276.371094 54.042969 C 266.550781 44.222656 255.386719 36.226562 243.300781 30.230469 L 239.070312 41.234375 C 276.101562 60.09375 301.523438 98.59375 301.523438 142.917969 C 301.523438 205.796875 250.371094 256.949219 187.496094 256.949219 C 178.679688 256.949219 170.09375 255.941406 161.847656 254.039062 L 154.085938 264.144531 C 164.835938 267.089844 176.046875 268.609375 187.496094 268.609375 C 221.066406 268.609375 252.632812 255.535156 276.371094 231.792969 C 300.109375 208.054688 313.183594 176.492188 313.183594 142.917969 C 313.183594 109.347656 300.109375 77.78125 276.371094 54.042969 " fill-opacity="1" fill-rule="nonzero"/></g><path fill="#ffffff" d="M 246.722656 124.429688 L 194.601562 124.429688 L 232.574219 25.640625 L 128.265625 161.410156 L 180.386719 161.410156 L 142.414062 260.195312 L 246.722656 124.429688 " fill-opacity="1" fill-rule="nonzero"/></svg>