<svg xmlns="http://www.w3.org/2000/svg" xmlns:xlink="http://www.w3.org/1999/xlink" width="500" zoomAndPan="magnify" viewBox="0 0 375 374.999991" height="500" preserveAspectRatio="xMidYMid meet" version="1.0"><defs><clipPath id="5944368565"><path d="M 37.5 37.5 L 337.5 37.5 L 337.5 337.5 L 37.5 337.5 Z M 37.5 37.5 " clip-rule="nonzero"/></clipPath><clipPath id="58fc5213d5"><path d="M 156.082031 166.332031 L 187.5 166.332031 L 187.5 198.53125 L 156.082031 198.53125 Z M 156.082031 166.332031 " clip-rule="nonzero"/></clipPath></defs><g clip-path="url(#5944368565)"><path fill="#ffffff" d="M 51.414062 187.5 C 51.414062 112.460938 112.460938 51.414062 187.5 51.414062 C 198.019531 51.414062 208.265625 52.617188 218.109375 54.886719 L 227.371094 42.828125 C 214.539062 39.3125 201.160156 37.5 187.5 37.5 C 147.433594 37.5 109.761719 53.101562 81.433594 81.433594 C 53.101562 109.765625 37.5 147.433594 37.5 187.5 C 37.5 227.566406 53.101562 265.234375 81.433594 293.566406 C 93.152344 305.289062 106.476562 314.828125 120.898438 321.984375 L 125.945312 308.855469 C 81.753906 286.347656 51.414062 240.398438 51.414062 187.5 Z M 293.566406 81.433594 C 281.847656 69.710938 268.523438 60.171875 254.101562 53.015625 L 249.054688 66.144531 C 293.246094 88.652344 323.585938 134.601562 323.585938 187.5 C 323.585938 262.539062 262.539062 323.585938 187.5 323.585938 C 176.980469 323.585938 166.734375 322.382812 156.890625 320.113281 L 147.628906 332.171875 C 160.460938 335.6875 173.839844 337.5 187.5 337.5 C 227.566406 337.5 265.234375 321.898438 293.566406 293.566406 C 321.898438 265.234375 337.5 227.566406 337.5 187.5 C 337.5 147.433594 321.898438 109.765625 293.566406 81.433594 " fill-opacity="1" fill-rule="nonzero"/></g><path fill="#ffffff" d="M 258.1875 165.433594 L 195.980469 165.433594 L 241.296875 47.539062 L 116.8125 209.566406 L 179.019531 209.566406 L 133.703125 327.460938 L 258.1875 165.433594 " fill-opacity="1" fill-rule="nonzero"/><g clip-path="url(#58fc5213d5)"><path fill="#ffffff" d="M 156.082031 166.332031 L 187.5 166.332031 L 187.5 198.488281 L 156.082031 198.488281 Z M 156.082031 166.332031 " fill-opacity="1" fill-rule="nonzero"/></g></svg>