<svg xmlns="http://www.w3.org/2000/svg" xmlns:xlink="http://www.w3.org/1999/xlink" width="700" zoomAndPan="magnify" viewBox="0 0 525 225" height="300" preserveAspectRatio="xMidYMid meet" version="1.0"><defs><g/><clipPath id="cf47812278"><path d="M 363.21875 15.398438 L 419.296875 15.398438 L 419.296875 66.667969 L 363.21875 66.667969 Z M 363.21875 15.398438 " clip-rule="nonzero"/></clipPath><clipPath id="f4bbb1c7d2"><path d="M 391.242188 15.398438 L 363.21875 47.699219 L 379.371094 47.699219 L 379.371094 66.667969 L 403.117188 66.667969 L 403.117188 47.699219 L 419.265625 47.699219 Z M 391.242188 15.398438 " clip-rule="nonzero"/></clipPath></defs><g fill="#f4f4f5" fill-opacity="1"><g transform="translate(27.264341, 167.927433)"><g><path d="M 81.484375 -64.703125 L 50.703125 -33.796875 L 84.5 0 L 55.75 0 L 29.890625 -25.859375 L 29.890625 0 L 7.5625 0 L 7.5625 -108.46875 L 29.890625 -108.46875 L 29.890625 -42.125 L 52.46875 -64.703125 Z M 81.484375 -64.703125 "/></g></g></g><g fill="#f4f4f5" fill-opacity="1"><g transform="translate(108.742315, 167.927433)"><g><path d="M 13.6875 -7.6875 C 6.5 -14.082031 2.90625 -22.28125 2.90625 -32.28125 C 2.90625 -42.289062 6.644531 -50.507812 14.125 -56.9375 C 21.601562 -63.375 30.851562 -66.59375 41.875 -66.59375 C 52.71875 -66.59375 61.859375 -63.351562 69.296875 -56.875 C 76.742188 -50.40625 80.46875 -42.207031 80.46875 -32.28125 C 80.46875 -22.363281 76.828125 -14.1875 69.546875 -7.75 C 62.273438 -1.320312 53.050781 1.890625 41.875 1.890625 C 30.269531 1.890625 20.875 -1.300781 13.6875 -7.6875 Z M 30.953125 -43.25 C 28.054688 -40.394531 26.609375 -36.738281 26.609375 -32.28125 C 26.609375 -27.832031 27.992188 -24.195312 30.765625 -21.375 C 33.546875 -18.5625 37.207031 -17.15625 41.75 -17.15625 C 46.125 -17.15625 49.71875 -18.582031 52.53125 -21.4375 C 55.34375 -24.300781 56.75 -27.914062 56.75 -32.28125 C 56.75 -36.738281 55.296875 -40.394531 52.390625 -43.25 C 49.492188 -46.113281 45.945312 -47.546875 41.75 -47.546875 C 37.457031 -47.546875 33.859375 -46.113281 30.953125 -43.25 Z M 30.953125 -43.25 "/></g></g></g><g fill="#f4f4f5" fill-opacity="1"><g transform="translate(192.11219, 167.927433)"><g><path d="M 7.5625 0 L 7.5625 -108.46875 L 29.890625 -108.46875 L 29.890625 0 Z M 7.5625 0 "/></g></g></g><g fill="#f4f4f5" fill-opacity="1"><g transform="translate(229.57188, 167.927433)"><g><path d="M 11.984375 -8 C 5.929688 -14.601562 2.90625 -22.695312 2.90625 -32.28125 C 2.90625 -41.875 5.929688 -49.988281 11.984375 -56.625 C 18.035156 -63.269531 25.726562 -66.59375 35.0625 -66.59375 C 43.632812 -66.59375 50.695312 -63.898438 56.25 -58.515625 L 56.25 -108.46875 L 78.578125 -108.46875 L 78.578125 0 L 56.5 0 L 56.5 -7.3125 L 56.25 -7.3125 C 50.695312 -1.175781 43.632812 1.890625 35.0625 1.890625 C 25.726562 1.890625 18.035156 -1.40625 11.984375 -8 Z M 30.953125 -43.25 C 28.054688 -40.394531 26.609375 -36.738281 26.609375 -32.28125 C 26.609375 -27.832031 27.992188 -24.195312 30.765625 -21.375 C 33.546875 -18.5625 37.207031 -17.15625 41.75 -17.15625 C 46.125 -17.15625 49.71875 -18.582031 52.53125 -21.4375 C 55.34375 -24.300781 56.75 -27.914062 56.75 -32.28125 C 56.75 -36.738281 55.296875 -40.394531 52.390625 -43.25 C 49.492188 -46.113281 45.945312 -47.546875 41.75 -47.546875 C 37.457031 -47.546875 33.859375 -46.113281 30.953125 -43.25 Z M 30.953125 -43.25 "/></g></g></g><g fill="#f4f4f5" fill-opacity="1"><g transform="translate(315.716545, 167.927433)"><g><path d="M 87.53125 -104.046875 L 87.53125 -36.953125 C 87.53125 -24.171875 84.082031 -14.5 77.1875 -7.9375 C 70.289062 -1.382812 60.195312 1.890625 46.90625 1.890625 C 33.625 1.890625 23.535156 -1.382812 16.640625 -7.9375 C 9.753906 -14.5 6.3125 -24.171875 6.3125 -36.953125 L 6.3125 -104.046875 L 30.015625 -104.046875 L 30.015625 -43.890625 C 30.015625 -35.484375 31.335938 -29.640625 33.984375 -26.359375 C 36.640625 -23.078125 40.953125 -21.4375 46.921875 -21.4375 C 52.890625 -21.4375 57.195312 -23.078125 59.84375 -26.359375 C 62.488281 -29.640625 63.8125 -35.484375 63.8125 -43.890625 L 63.8125 -104.046875 Z M 87.53125 -104.046875 "/></g></g></g><g fill="#f4f4f5" fill-opacity="1"><g transform="translate(409.554938, 167.927433)"><g><path d="M 74.15625 -56.6875 C 80.21875 -50.09375 83.25 -42 83.25 -32.40625 C 83.25 -22.820312 80.21875 -14.707031 74.15625 -8.0625 C 68.101562 -1.425781 60.410156 1.890625 51.078125 1.890625 C 42.503906 1.890625 35.441406 -0.800781 29.890625 -6.1875 L 29.890625 32.796875 L 7.5625 32.796875 L 7.5625 -64.703125 L 29.640625 -64.703125 L 29.640625 -57.390625 L 29.890625 -57.390625 C 35.441406 -63.523438 42.503906 -66.59375 51.078125 -66.59375 C 60.410156 -66.59375 68.101562 -63.289062 74.15625 -56.6875 Z M 55.171875 -21.4375 C 58.078125 -24.300781 59.53125 -27.957031 59.53125 -32.40625 C 59.53125 -36.863281 58.140625 -40.5 55.359375 -43.3125 C 52.585938 -46.132812 48.929688 -47.546875 44.390625 -47.546875 C 40.023438 -47.546875 36.429688 -46.113281 33.609375 -43.25 C 30.796875 -40.394531 29.390625 -36.785156 29.390625 -32.421875 C 29.390625 -27.960938 30.835938 -24.300781 33.734375 -21.4375 C 36.640625 -18.582031 40.191406 -17.15625 44.390625 -17.15625 C 48.679688 -17.15625 52.273438 -18.582031 55.171875 -21.4375 Z M 55.171875 -21.4375 "/></g></g></g><g clip-path="url(#cf47812278)"><g clip-path="url(#f4bbb1c7d2)"><path fill="#f4f4f5" d="M 363.21875 66.667969 L 363.21875 15.398438 L 419.296875 15.398438 L 419.296875 66.667969 Z M 363.21875 66.667969 " fill-opacity="1" fill-rule="nonzero"/></g></g></svg>